<?xml version="1.0" encoding="UTF-8" standalone="no"?>
<svg
   xmlns:dc="http://purl.org/dc/elements/1.1/"
   xmlns:cc="http://creativecommons.org/ns#"
   xmlns:rdf="http://www.w3.org/1999/02/22-rdf-syntax-ns#"
   xmlns:svg="http://www.w3.org/2000/svg"
   xmlns="http://www.w3.org/2000/svg"
   id="svg6"
   version="1.1"
   fill="none"
   viewBox="0 0 700 124"
   height="124"
   width="700"
   class="backsvg">
  <metadata
     id="metadata12">
    <rdf:RDF>
      <cc:Work
         rdf:about="">
        <dc:format>image/svg+xml</dc:format>
        <dc:type
           rdf:resource="http://purl.org/dc/dcmitype/StillImage" />
        <dc:title></dc:title>
      </cc:Work>
    </rdf:RDF>
  </metadata>
  <defs
     id="defs10" />
  <path
     id="path2"
     d="m 14.727369,-386.8105 c -131.975079,-0.40851 -272.827179,101.99348 -369.161769,32.04621 -83.85037,-58.84262 -201.72637,41.62578 -255.07813,-2.68555 v 80.61915 l 1178.73242,1.58593 1.70704,-82.21875 c 0,0 -24.53964,-36.04929 -75.0021,5.30088 -50.46245,41.35016 -129.38897,-68.31758 -251.16245,-5.30078 -81.16374,42.00158 -193.081988,-29.23271 -230.035011,-29.34709 z"
     style="fill:#edd3d3;fill-opacity:1;stroke-width:1.02058315" />
  <path
     id="path4"
     d="m 307.27658,438.66659 c -28.47263,-0.0256 -57.09439,7.75987 -84.92773,20.83984 -49.10937,23.0308 -95.98458,62.08184 -145.093752,65.08593 -49.109172,3.004 -95.986624,-29.03896 -145.095704,-32.04296 -46.877204,-4.0053 -95.986064,22.02939 -142.863284,19.02539 -49.10905,-3.0041 -95.98663,-35.04687 -145.0957,-35.04687 -46.8762,0 -95.98707,32.04306 -142.86328,29.03906 -35.56659,-2.90079 -62.71848,-16.82573 -98.89844,-29.61328 v 103.71288 h 98.89844 142.86328 145.0957 142.863284 145.095704 145.093752 142.86523 145.09375 142.17969 v -97.12109 c -46.671,0.3756 -95.53016,39.02848 -142.17969,36.03907 -49.10908,-4.0053 -95.98467,-49.06445 -145.09375,-68.08985 -19.04386,-8.13588 -38.45622,-11.81064 -57.9375,-11.82812 z"
     style="clip-rule:evenodd;fill:#ff0000;fill-opacity:1;fill-rule:evenodd;stroke-width:0.99885219" />
  <path
     id="path835"
     d="M -616.0957 15.638672 C -649.75105 15.762005 -677.05606 23.187938 -698.29688 41.251953 L -698.29688 184.20508 L 1.7050781 184.20508 L 701.70703 184.20508 L 701.70703 40.341797 C 630.74184 65.48843 532.64638 118.49206 401.27539 85.373047 C 262.72312 50.443612 157.94802 15.367341 83.90625 15.638672 C 50.250898 15.762005 22.945897 23.187938 1.7050781 41.251953 L 1.7050781 40.341797 C -69.260112 65.48843 -167.35557 118.49206 -298.72656 85.373047 C -437.27883 50.443612 -542.05393 15.367341 -616.0957 15.638672 z "
     style="fill:#edd3d3;fill-opacity:1;stroke:#000000;stroke-width:1.08106852px;stroke-linecap:butt;stroke-linejoin:miter;stroke-opacity:1" />
  <path
     id="path848"
     d="M 377.40039,41.330078 C 319.13828,40.980564 271.76524,58.347198 193.17383,86.435547 64.20331,132.52924 55.289913,41.103127 1.7050781,67.658203 -51.879757,94.213279 -39.130119,109.15456 -186.04297,66.59375 -332.95582,24.03294 -372.73565,67.658537 -506.82812,87.345703 -642.33539,107.24059 -677.05606,50.504339 -698.29688,68.568359 V 211.52148 H 1.7050781 v -0.91015 H 701.70703 V 66.748047 C 630.74184,91.894677 660.87183,108.24441 513.95898,65.683594 456.57115,49.058277 414.7479,41.554126 377.40039,41.330078 Z"
     style="fill:#edd3d3;fill-opacity:1;stroke:#000000;stroke-width:1.08106852px;stroke-linecap:butt;stroke-linejoin:miter;stroke-opacity:1" />
</svg>
